<svg width="17" height="19" viewBox="0 0 17 19" fill="none" xmlns="http://www.w3.org/2000/svg">
<path d="M15.6094 11.6484L9.35938 17.8984C9.125 18.1328 8.8125 18.25 8.5 18.25C8.14844 18.25 7.83594 18.1328 7.60156 17.8984L1.35156 11.6484C0.84375 11.1797 0.84375 10.3594 1.35156 9.89062C1.82031 9.38281 2.64062 9.38281 3.10938 9.89062L7.25 13.9922V2C7.25 1.33594 7.79688 0.789062 8.46094 0.789062C9.08594 0.789062 9.75 1.33594 9.75 2V13.9922L13.8516 9.89062C14.3203 9.38281 15.1406 9.38281 15.6094 9.89062C16.1172 10.3594 16.1172 11.1797 15.6094 11.6484Z" fill="#334155"/>
</svg>
