<svg width="22" height="31" viewBox="0 0 22 31" fill="none" xmlns="http://www.w3.org/2000/svg">
<path d="M6.5625 27.4102V25.125H15.9375L15.8789 27.4102C15.8789 27.7031 15.7617 28.1719 15.5859 28.4062L14.5898 29.9297C14.2969 30.3984 13.5938 30.75 13.0078 30.75H9.43359C8.84766 30.75 8.14453 30.3984 7.85156 29.9297L6.85547 28.4062C6.62109 28.1133 6.5625 27.7617 6.5625 27.4102ZM11.1914 0.808594C16.875 0.75 21.5625 5.37891 21.5625 11.0625C21.5625 13.6992 20.5664 16.043 18.9844 17.8008C17.9883 18.9141 16.5234 21.2578 15.9375 23.1914C15.9375 23.1914 15.9375 23.1914 15.9375 23.25H6.50391C6.50391 23.1914 6.50391 23.1914 6.50391 23.1914C5.91797 21.2578 4.45312 18.9141 3.45703 17.8008C1.875 15.9844 0.9375 13.6406 0.9375 11.0625C0.9375 5.61328 5.21484 0.808594 11.1914 0.808594ZM11.25 6.43359C11.7188 6.43359 12.1875 6.02344 12.1875 5.49609C12.1875 5.02734 11.7188 4.55859 11.25 4.55859C7.61719 4.55859 4.6875 7.48828 4.6875 11.0625C4.6875 11.5898 5.09766 12 5.625 12C6.09375 12 6.5625 11.5898 6.5625 11.0625C6.5625 8.48438 8.61328 6.43359 11.25 6.43359Z" fill="#334155"/>
</svg>
