<svg width="32" height="31" viewBox="0 0 32 31" fill="none" xmlns="http://www.w3.org/2000/svg">
<path d="M21.625 8.25C26.4297 8.25 30.3555 11.8828 30.9414 16.5703C31.0586 17.1562 30.5312 17.6836 29.9453 17.625L22.7383 16.9219C23.207 18.2695 23.5 19.793 23.5 21.4336C23.5 26.2383 19.8672 30.1641 15.1797 30.75C14.5938 30.8672 14.0664 30.3398 14.125 29.7539L14.8281 22.5469C13.4805 23.0156 11.957 23.25 10.3164 23.25C5.51172 23.25 1.52734 19.6758 1 14.9883C0.882812 14.4023 1.41016 13.8164 1.99609 13.9336L9.14453 14.6367C8.67578 13.2891 8.44141 11.7656 8.44141 10.125C8.44141 5.32031 12.0742 1.39453 16.7617 0.75C17.3477 0.632812 17.875 1.16016 17.8164 1.74609L17.1133 8.95312C18.4609 8.48438 19.9844 8.25 21.625 8.25ZM15.9414 17.625C16.9961 17.625 17.7578 16.7461 17.7578 15.75C17.7578 14.6953 16.8789 13.875 15.9414 13.875C14.9453 13.875 14.125 14.6953 14.125 15.75C14.125 16.7461 14.8867 17.625 15.9414 17.625Z" fill="#334155"/>
</svg>
