<svg width="38" height="31" viewBox="0 0 38 31" fill="none" xmlns="http://www.w3.org/2000/svg">
<path d="M0 29.3438V10.8281C0 9.30469 0.878906 7.89844 2.34375 7.3125L18.0469 1.04297C18.457 0.867188 18.9844 0.867188 19.3945 1.04297L35.0977 7.3125C36.5625 7.89844 37.5 9.30469 37.5 10.8281V29.3438C37.5 30.1641 36.8555 30.75 36.0938 30.75H33.2812C32.4609 30.75 31.875 30.1641 31.875 29.3438V13.875C31.875 12.8789 30.9961 12 30 12H7.5C6.44531 12 5.625 12.8789 5.625 13.875V29.3438C5.625 30.1641 4.98047 30.75 4.21875 30.75H1.40625C0.585938 30.75 0 30.1641 0 29.3438ZM8.90625 30.75C8.08594 30.75 7.5 30.1641 7.5 29.3438V26.0625H30V29.3438C30 30.1641 29.3555 30.75 28.5938 30.75H8.90625ZM7.5 20.4375H30V24.1875H7.5V20.4375ZM7.5 13.875H30V18.5625H7.5V13.875Z" fill="#334155"/>
</svg>
