<svg width="80" height="80" viewBox="0 0 80 80" fill="none" xmlns="http://www.w3.org/2000/svg">
<path d="M53.3334 10C51.5653 10 49.8696 10.7024 48.6194 11.9526C47.3691 13.2029 46.6667 14.8986 46.6667 16.6667V36.6667C46.6667 38.4348 47.3691 40.1305 48.6194 41.3807C49.8696 42.631 51.5653 43.3333 53.3334 43.3333C54.2175 43.3333 55.0653 43.6845 55.6904 44.3096C56.3156 44.9348 56.6667 45.7826 56.6667 46.6667V50C56.6667 51.7681 55.9644 53.4638 54.7141 54.714C53.4639 55.9643 51.7682 56.6667 50.0001 56.6667C49.116 56.6667 48.2682 57.0179 47.6431 57.643C47.0179 58.2681 46.6667 59.1159 46.6667 60V66.6667C46.6667 67.5507 47.0179 68.3986 47.6431 69.0237C48.2682 69.6488 49.116 70 50.0001 70C55.3044 70 60.3915 67.8929 64.1422 64.1421C67.8929 60.3914 70.0001 55.3043 70.0001 50V16.6667C70.0001 14.8986 69.2977 13.2029 68.0475 11.9526C66.7972 10.7024 65.1015 10 63.3334 10H53.3334Z" fill="#262626"/>
<path d="M16.6667 10C14.8986 10 13.2029 10.7024 11.9526 11.9526C10.7024 13.2029 10 14.8986 10 16.6667V36.6667C10 38.4348 10.7024 40.1305 11.9526 41.3807C13.2029 42.631 14.8986 43.3333 16.6667 43.3333C17.5507 43.3333 18.3986 43.6845 19.0237 44.3096C19.6488 44.9348 20 45.7826 20 46.6667V50C20 51.7681 19.2976 53.4638 18.0474 54.714C16.7971 55.9643 15.1014 56.6667 13.3333 56.6667C12.4493 56.6667 11.6014 57.0179 10.9763 57.643C10.3512 58.2681 10 59.1159 10 60V66.6667C10 67.5507 10.3512 68.3986 10.9763 69.0237C11.6014 69.6488 12.4493 70 13.3333 70C18.6377 70 23.7247 67.8929 27.4755 64.1421C31.2262 60.3914 33.3333 55.3043 33.3333 50V16.6667C33.3333 14.8986 32.631 13.2029 31.3807 11.9526C30.1305 10.7024 28.4348 10 26.6667 10H16.6667Z" fill="#262626"/>
</svg>
